<svg width="14" height="14" viewBox="0 0 14 14" fill="none" xmlns="http://www.w3.org/2000/svg">
<g clip-path="url(#clip0_1222_31251)">
<path d="M5.76117 8.6905C5.56285 8.88439 5.2965 8.99296 5.01914 8.99296C4.74177 8.99296 4.47542 8.88439 4.2771 8.6905C4.08043 8.49722 3.81572 8.38892 3.53997 8.38892C3.26423 8.38892 2.99951 8.49722 2.80285 8.6905L0.925632 10.5481C0.731734 10.7464 0.623169 11.0127 0.623169 11.2901C0.623169 11.5675 0.731734 11.8338 0.925632 12.0321L1.36791 12.4646C1.87382 12.9773 2.54082 13.3001 3.25678 13.3789C3.97274 13.4577 4.69399 13.2875 5.29924 12.897C6.22211 12.2743 7.1058 11.5991 7.94629 10.8756" stroke="black" stroke-linecap="round" stroke-linejoin="round"/>
<path d="M0.5 0.5L13.5 13.5" stroke="black" stroke-linecap="round" stroke-linejoin="round"/>
<path d="M9.46703 9.46708C10.7476 8.19099 11.9065 6.79283 12.9261 5.29009C13.3166 4.68483 13.4868 3.96359 13.408 3.24763C13.3293 2.53167 13.0064 1.86466 12.4937 1.35875L12.0612 0.916478C11.8629 0.72258 11.5966 0.614014 11.3192 0.614014C11.0418 0.614014 10.7755 0.72258 10.5772 0.916478L8.70977 2.78386C8.51649 2.98053 8.40819 3.24524 8.40819 3.52099C8.40819 3.79673 8.51649 4.06144 8.70977 4.25811C8.80813 4.35504 8.88624 4.47056 8.93955 4.59795C8.99287 4.72534 9.02032 4.86206 9.02032 5.00015C9.02032 5.13825 8.99287 5.27496 8.93955 5.40235C8.88624 5.52974 8.80813 5.64526 8.70977 5.74219L7.22595 7.22601" stroke="black" stroke-linecap="round" stroke-linejoin="round"/>
</g>
<defs>
<clipPath id="clip0_1222_31251">
<rect width="14" height="14" fill="white"/>
</clipPath>
</defs>
</svg>
